<svg width="9" height="9" viewBox="-1 0 10 9" xmlns="http://www.w3.org/2000/svg">
<g clip-path="url(#clip0_2409_12178)">
<path d="M4.5 0C2.01871 0 0 2.01871 0 4.5C0 6.98129 2.01871 9 4.5 9C6.98129 9 9 6.98129 9 4.5C9 2.01871 6.98129 0 4.5 0ZM4.5 8.30769C2.40043 8.30769 0.692314 6.59955 0.692314 4.5C0.692314 2.40045 2.40043 0.692314 4.5 0.692314C6.59957 0.692314 8.30769 2.40043 8.30769 4.5C8.30769 6.59957 6.59957 8.30769 4.5 8.30769Z" fill="#C1C4C7"/>
<path d="M4.84612 4.03845H4.15381V6.34614H4.84612V4.03845Z" fill="#C1C4C7"/>
<path d="M4.50011 2.53845C4.24561 2.53845 4.03857 2.7455 4.03857 2.99998C4.03857 3.25446 4.24561 3.46151 4.50011 3.46151C4.7546 3.46151 4.96164 3.25446 4.96164 2.99998C4.96164 2.7455 4.7546 2.53845 4.50011 2.53845Z" fill="#C1C4C7"/>
</g>
<defs>
<clipPath id="clip0_2409_12178">
<rect width="9" height="9" fill="white"/>
</clipPath>
</defs>
</svg>
