<svg width="188" height="24" viewBox="0 0 188 24" fill="none" xmlns="http://www.w3.org/2000/svg">
<g clip-path="url(#clip0_526_10489)">
<path d="M11.2462 18.8109L3.92111 9.51072C3.88554 9.54668 3.85271 9.57988 3.81713 9.57988V23.5467H0V0.105469H0.763427C4.3726 4.73894 7.98451 9.30049 11.6293 13.9312C13.3996 11.4748 20.6536 2.5619 22.4595 0.105469H23.1545V23.5467H19.3347C19.3347 18.5287 19.3702 14.4927 19.3702 9.4388C19.3347 9.40284 19.2663 9.36964 19.2307 9.36964L11.974 18.8109H11.2462Z" fill="white"/>
<path d="M30.2734 23.5458V0.386719H34.2657V23.5485H30.2734V23.5458Z" fill="white"/>
<path d="M81.8618 19.1251H71.8305L70.0246 23.5455H66.1719L76.6218 0.0683594H77.3497L87.6929 23.5455H83.7006L81.8618 19.1251ZM72.9743 16.2814H80.7509L76.9337 7.15826H76.7942L72.9743 16.2814Z" fill="white"/>
<path d="M99.1406 23.5463V0H99.9041C102.265 2.38728 112.573 13.195 114.97 15.5795H115.11V0.387275H119.034V23.8285H118.339C115.665 20.8797 105.842 11.0539 103.204 8.07192H103.1V23.5463H99.1406Z" fill="white"/>
<path d="M158.653 23.8611C157.055 19.9663 150.184 4.3148 148.586 0.419922H152.786C153.238 1.61218 156.362 9.47387 158.929 15.8943H159.102C160.281 12.8072 164.03 3.36598 165.176 0.419922H169.272L159.416 23.8611H158.653Z" fill="white"/>
<path d="M182.174 19.1251H172.143L170.337 23.5455H166.484L176.934 0.0683594H177.662L188.005 23.5455H184.013L182.174 19.1251ZM173.29 16.2814H181.066L177.249 7.15826H177.109L173.29 16.2814Z" fill="white"/>
<path d="M123.422 12.034C123.422 5.33139 128.697 0.03125 135.571 0.03125C142.617 0.03125 147.616 5.32862 147.616 12.034C147.616 18.8058 142.617 24.0008 135.535 24.0008C127.97 24.0008 123.422 18.8058 123.422 12.034ZM127.45 12.034C127.45 16.9469 130.575 20.7007 135.571 20.7007C140.499 20.7007 143.66 16.8058 143.66 12.034C143.66 7.29543 140.431 3.43651 135.571 3.43651C130.747 3.43651 127.45 7.22627 127.45 12.034Z" fill="white"/>
<path d="M63.8753 20.3535H58.4739V0.386719H54.4844V23.5458H63.2049L63.8753 22.3591V20.3535Z" fill="white"/>
<path d="M50.7687 20.3535H45.3673V0.386719H41.375V23.5458H50.0983L50.7687 22.3591V20.3535Z" fill="white"/>
</g>
<defs>
<clipPath id="clip0_526_10489">
<rect width="188" height="24" fill="white"/>
</clipPath>
</defs>
</svg>
