<svg width="1000" height="1000" viewBox="0 0 1000 1000" fill="none" xmlns="http://www.w3.org/2000/svg">
<rect width="1000" height="1000" fill="#607788" fill-opacity="0.16"/>
<g opacity="0.3">
<path d="M448.206 590.716H459.122V409.688H448.182L441.02 415.344V584.887L448.206 590.716Z" fill="#C1C4C7"/>
<path d="M448.207 409.688H459.123L505.33 500.202H494.389L448.207 409.688Z" fill="#C1C4C7"/>
<path d="M551.544 590.712H540.628L494.446 500.198H505.362L551.544 590.712Z" fill="#C1C4C7"/>
<path d="M551.521 409.688H540.605L494.397 500.202H505.338L551.521 409.688Z" fill="#C1C4C7"/>
<path d="M551.542 409.688H540.626V590.716H551.567L558.729 585.06V415.517L551.542 409.688Z" fill="#C1C4C7"/>
<path d="M499.9 336.707C403.188 336.707 324.8 409.909 324.8 500.2C324.8 590.491 403.188 663.693 499.9 663.693C596.613 663.693 675 590.491 675 500.2C675 409.909 596.613 336.707 499.9 336.707ZM499.9 659.741C411.782 659.741 340.359 588.318 340.359 500.2C340.359 412.082 411.782 340.659 499.9 340.659C588.018 340.659 659.441 412.082 659.441 500.2C659.441 588.318 588.018 659.741 499.9 659.741Z" fill="#C1C4C7"/>
</g>
</svg>
