<svg width="24" height="24" viewBox="0 0 24 24" fill="none" xmlns="http://www.w3.org/2000/svg">
<path d="M23.9676 10.7188L14.3877 14.2818L10.6562 10.7524L23.9676 10.7188Z" fill="#826038"/>
<path d="M14.5203 6.65625L23.932 10.7235L10.6211 10.7571L14.5203 6.65625Z" fill="#F6DFA4"/>
<path d="M10.6562 24.0015V10.7578L14.3873 14.2872L10.6562 24.0015Z" fill="#9D7D42"/>
<path d="M10.6562 0V10.7227L14.5218 6.65546L10.6562 0Z" fill="#D6AB5B"/>
<path d="M0.000263214 10.7188L6.92476 14.2818L10.6562 10.7524L0.000263214 10.7188Z" fill="#9F7F44"/>
<path d="M7.59897 7.46094L0.0354195 10.7193L10.6914 10.753L7.59897 7.46094Z" fill="#F6DFA4"/>
<path d="M10.6562 24.0015V10.7578L6.92516 14.2872L10.6562 24.0015Z" fill="#C79F54"/>
<path d="M10.6562 0V10.7227L7.5969 7.46166L10.6562 0Z" fill="#F8CF81"/>
</svg>
