<svg width="132" height="123" viewBox="0 0 132 123" fill="none" xmlns="http://www.w3.org/2000/svg">
<path fill-rule="evenodd" clip-rule="evenodd" d="M11 61.5C11 33.0583 35.622 10 66 10C96.378 10 121 33.0583 121 61.5C121 89.9417 96.378 113 66 113C35.622 113 11 89.9417 11 61.5ZM15.8872 61.5C15.8872 89.2571 38.3216 111.755 66 111.755C93.6784 111.755 116.113 89.2571 116.113 61.5C116.113 33.7429 93.6784 11.2447 66 11.2447C38.3216 11.2447 15.8872 33.7429 15.8872 61.5ZM80.2507 37.1011L77.2812 35.3867L65.4883 55.8127L53.6953 35.3867L50.7259 37.1011L49.6889 39.8198L62.2054 61.4989L48.7695 84.7705L51.7457 86.4887L54.5847 86.0707L65.4883 67.1851L76.3919 86.0707L79.2309 86.4887L82.207 84.7705L68.7712 61.4989L81.2877 39.8198L80.2507 37.1011Z" fill="#051C2C"/>
</svg>
