<svg width="204" height="100" viewBox="0 0 204 100" fill="none" xmlns="http://www.w3.org/2000/svg">
<rect width="64" height="88" fill="#F1F2F3"/>
<rect x="70" width="64" height="88" fill="#F1F2F3"/>
<rect x="140" width="64" height="88" fill="#F1F2F3"/>
<path d="M116.539 75.8641C117.992 74.7334 120.088 72.9633 120.961 71.5477C121.615 70.49 121.828 69.1797 121.544 67.9614C120.936 65.1862 117.572 64.0522 115.477 65.912C115.359 66.0159 115.25 66.1311 115.139 66.2494C115.093 66.2976 115.047 66.3464 115 66.3952C114.953 66.3464 114.907 66.2976 114.861 66.2494C114.75 66.1311 114.641 66.0159 114.523 65.912C112.428 64.0522 109.064 65.1862 108.457 67.9614C108.173 69.1797 108.385 70.49 109.039 71.5477C109.912 72.9633 112.009 74.7334 113.461 75.8641C113.866 76.1792 115 77 115 77C115 77 116.134 76.1792 116.539 75.8641Z" fill="#EB5757"/>
<g clip-path="url(#clip0_1332_7292)">
<path d="M129.91 82.36L133 90.854L130.182 91.88L127.09 83.386L122.918 86.542L124.408 71.633L135.134 82.096L129.91 82.36Z" fill="#051C2C"/>
</g>
<defs>
<clipPath id="clip0_1332_7292">
<rect width="24" height="24" fill="white" transform="translate(116 70)"/>
</clipPath>
</defs>
</svg>
