<svg width="48" height="48" viewBox="0 0 48 48" fill="none" xmlns="http://www.w3.org/2000/svg">
<g clip-path="url(#clip0_1289_7299)">
<path d="M24 6C15.3755 6 8.40002 12.5364 8.40002 21.36C8.40002 33.33 24 48.6 24 48.6C24 48.6 39.6 33.33 39.6 21.36C39.6 12.5364 32.6246 6 24 6Z" fill="#051C2C"/>
<path d="M24.0001 7C16.2601 7 10.0001 13.26 10.0001 21C10.0001 31.5 24.0001 47 24.0001 47C24.0001 47 38.0001 31.5 38.0001 21C38.0001 13.26 31.7401 7 24.0001 7Z" fill="#F6DFA4"/>
<path fill-rule="evenodd" clip-rule="evenodd" d="M18 28.7405L18.8789 29.4001H20.3182V15.858L23.2966 21.2587H23.3015L27.7901 29.4001H29.1215L30 28.7581V13.2597L29.1211 12.6001H27.788L23.999 19.4684L20.2099 12.6001H18.8785L18 13.242V28.7405ZM27.6818 26.1412L24.8459 20.9978L27.6818 15.8545V26.1412Z" fill="#051C2C"/>
</g>
<defs>
<clipPath id="clip0_1289_7299">
<rect width="48" height="48" fill="white"/>
</clipPath>
</defs>
</svg>
