<svg width="256" height="256" viewBox="0 0 256 256" fill="none" xmlns="http://www.w3.org/2000/svg">
<path d="M94.0492 187.824H101.218V68.9314H94.033L89.3292 72.6458V183.996L94.0492 187.824Z" fill="white"/>
<path d="M94.0495 68.9314H101.219L131.566 128.378H124.381L94.0495 68.9314Z" fill="white"/>
<path d="M161.918 187.822H154.749L124.418 128.375H131.587L161.918 187.822Z" fill="white"/>
<path d="M161.903 68.9314H154.734L124.386 128.378H131.571L161.903 68.9314Z" fill="white"/>
<path d="M161.917 68.9314H154.748V187.824H161.933L166.637 184.11V72.7593L161.917 68.9314Z" fill="white"/>
<path d="M128 21C64.4824 21 13 69.0762 13 128.377C13 187.677 64.4824 235.753 128 235.753C191.518 235.753 243 187.677 243 128.377C243 69.0762 191.518 21 128 21ZM128 233.158C70.1269 233.158 23.2186 186.25 23.2186 128.377C23.2186 70.5035 70.1269 23.5952 128 23.5952C185.873 23.5952 232.781 70.5035 232.781 128.377C232.781 186.25 185.873 233.158 128 233.158Z" fill="white"/>
</svg>
